<svg width="52" height="63" viewBox="0 0 52 63" fill="none" xmlns="http://www.w3.org/2000/svg">
<path fill-rule="evenodd" clip-rule="evenodd" d="M45.2308 43.6154V27.4615C45.2308 17.5431 39.9646 9.24 30.6923 7.04308V4.84615C30.6923 2.16462 28.5277 0 25.8462 0C23.1646 0 21 2.16462 21 4.84615V7.04308C11.76 9.24 6.46154 17.5108 6.46154 27.4615V43.6154L0 50.0769V53.3077H51.6923V50.0769L45.2308 43.6154ZM25.8462 63C29.4 63 32.3077 60.0923 32.3077 56.5385H19.3846C19.3846 60.0923 22.2923 63 25.8462 63ZM12.9231 46.8462H38.7692V27.4615C38.7692 19.4492 33.8908 12.9231 25.8462 12.9231C17.8015 12.9231 12.9231 19.4492 12.9231 27.4615V46.8462Z" fill="white"/>
</svg>
