<svg width="44" height="44" viewBox="0 0 44 44" fill="none" xmlns="http://www.w3.org/2000/svg">
<path d="M43.6941 8.43296L33.6444 0L30.8262 3.3426L40.8758 11.7756L43.6941 8.43296ZM12.8461 3.3426L10.0496 0L0 8.41111L2.81827 11.7537L12.8461 3.3426ZM22.9394 13.4141H19.6623V26.5223L30.0397 32.7487L31.6782 30.0615L22.9394 24.8838V13.4141ZM21.847 4.67527C10.9891 4.67527 2.1847 13.4796 2.1847 24.3376C2.1847 35.1956 10.9672 43.9999 21.847 43.9999C32.705 43.9999 41.5094 35.1956 41.5094 24.3376C41.5094 13.4796 32.705 4.67527 21.847 4.67527ZM21.847 39.6305C13.3922 39.6305 6.55411 32.7924 6.55411 24.3376C6.55411 15.8828 13.3922 9.04468 21.847 9.04468C30.3018 9.04468 37.14 15.8828 37.14 24.3376C37.14 32.7924 30.3018 39.6305 21.847 39.6305Z" fill="white"/>
</svg>
