<svg width="49" height="49" viewBox="0 0 49 49" fill="none" xmlns="http://www.w3.org/2000/svg">
<path fill-rule="evenodd" clip-rule="evenodd" d="M24.4999 10.0349C26.7253 7.42157 30.1349 5.76782 33.6874 5.76782C39.9758 5.76782 44.9166 10.7087 44.9166 16.997C44.9166 24.7082 37.9863 30.9925 27.4862 40.5139L27.4603 40.5374L24.4999 43.2324L21.5395 40.5578L21.4589 40.4846C10.9895 30.9707 4.08325 24.6948 4.08325 16.997C4.08325 10.7087 9.02409 5.76782 15.3124 5.76782C18.8649 5.76782 22.2745 7.42157 24.4999 10.0349ZM24.4999 37.7199L24.7041 37.5157C34.4224 28.7162 40.8332 22.8974 40.8332 16.997C40.8332 12.9137 37.7707 9.85116 33.6874 9.85116C30.5433 9.85116 27.4807 11.8724 26.4191 14.6695H22.6012C21.5191 11.8724 18.4566 9.85116 15.3124 9.85116C11.2291 9.85116 8.16659 12.9137 8.16659 16.997C8.16659 22.8974 14.5774 28.7162 24.2958 37.5157L24.4999 37.7199Z" fill="white"/>
</svg>
