<svg width="72" height="80" viewBox="0 0 72 80" fill="none" xmlns="http://www.w3.org/2000/svg">
<path id="Vector" d="M59.2526 9.88C58.9326 9.88 58.6126 9.8 58.3326 9.64C50.6526 5.68 44.0126 4 36.0526 4C28.1326 4 20.6126 5.88 13.7726 9.64C12.8126 10.16 11.6126 9.8 11.0526 8.84C10.5326 7.88 10.8926 6.64 11.8526 6.12C19.2926 2.08 27.4526 0 36.0526 0C44.5726 0 52.0126 1.88 60.1726 6.08C61.1726 6.6 61.5326 7.8 61.0126 8.76C60.6526 9.48 59.9726 9.88 59.2526 9.88ZM2.01264 30.88C1.61264 30.88 1.21264 30.76 0.852635 30.52C-0.0673646 29.88 -0.267365 28.64 0.372635 27.72C4.33263 22.12 9.37264 17.72 15.3726 14.64C27.9326 8.16 44.0126 8.12 56.6126 14.6C62.6126 17.68 67.6526 22.04 71.6126 27.6C72.2526 28.48 72.0526 29.76 71.1326 30.4C70.2126 31.04 68.9726 30.84 68.3326 29.92C64.7326 24.88 60.1726 20.92 54.7726 18.16C43.2926 12.28 28.6126 12.28 17.1726 18.2C11.7326 21 7.17264 25 3.57264 30.04C3.25264 30.6 2.65264 30.88 2.01264 30.88ZM27.0126 79.16C26.4926 79.16 25.9726 78.96 25.6126 78.56C22.1326 75.08 20.2526 72.84 17.5726 68C14.8126 63.08 13.3726 57.08 13.3726 50.64C13.3726 38.76 23.5326 29.08 36.0126 29.08C48.4926 29.08 58.6526 38.76 58.6526 50.64C58.6526 51.76 57.7726 52.64 56.6526 52.64C55.5326 52.64 54.6526 51.76 54.6526 50.64C54.6526 40.96 46.2926 33.08 36.0126 33.08C25.7326 33.08 17.3726 40.96 17.3726 50.64C17.3726 56.4 18.6526 61.72 21.0926 66.04C23.6526 70.64 25.4126 72.6 28.4926 75.72C29.2526 76.52 29.2526 77.76 28.4926 78.56C28.0526 78.96 27.5326 79.16 27.0126 79.16ZM55.6926 71.76C50.9326 71.76 46.7326 70.56 43.2926 68.2C37.3326 64.16 33.7726 57.6 33.7726 50.64C33.7726 49.52 34.6526 48.64 35.7726 48.64C36.8926 48.64 37.7726 49.52 37.7726 50.64C37.7726 56.28 40.6526 61.6 45.5326 64.88C48.3726 66.8 51.6926 67.72 55.6926 67.72C56.6526 67.72 58.2526 67.6 59.8526 67.32C60.9326 67.12 61.9726 67.84 62.1726 68.96C62.3726 70.04 61.6526 71.08 60.5326 71.28C58.2526 71.72 56.2526 71.76 55.6926 71.76ZM47.6526 80C47.4926 80 47.2926 79.96 47.1326 79.92C40.7726 78.16 36.6126 75.8 32.2526 71.52C26.6526 65.96 23.5726 58.56 23.5726 50.64C23.5726 44.16 29.0926 38.88 35.8926 38.88C42.6926 38.88 48.2126 44.16 48.2126 50.64C48.2126 54.92 51.9326 58.4 56.5326 58.4C61.1326 58.4 64.8526 54.92 64.8526 50.64C64.8526 35.56 51.8526 23.32 35.8526 23.32C24.4926 23.32 14.0926 29.64 9.41263 39.44C7.85263 42.68 7.05264 46.48 7.05264 50.64C7.05264 53.76 7.33263 58.68 9.73263 65.08C10.1326 66.12 9.61263 67.28 8.57263 67.64C7.53263 68.04 6.37264 67.48 6.01264 66.48C4.05264 61.24 3.09264 56.04 3.09264 50.64C3.09264 45.84 4.01263 41.48 5.81263 37.68C11.1326 26.52 22.9326 19.28 35.8526 19.28C54.0526 19.28 68.8526 33.32 68.8526 50.6C68.8526 57.08 63.3326 62.36 56.5326 62.36C49.7326 62.36 44.2126 57.08 44.2126 50.6C44.2126 46.32 40.4926 42.84 35.8926 42.84C31.2926 42.84 27.5726 46.32 27.5726 50.6C27.5726 57.44 30.2126 63.84 35.0526 68.64C38.8526 72.4 42.4926 74.48 48.1326 76.04C49.2126 76.32 49.8126 77.44 49.5326 78.48C49.3326 79.4 48.4926 80 47.6526 80Z" fill="#00339E"/>
</svg>
