<svg width="192" height="192" viewBox="0 0 192 192" fill="none" xmlns="http://www.w3.org/2000/svg">
<g id="Face" clip-path="url(#clip0_102_912)">
<g id="Group">
<g id="Group_2">
<path id="Vector" d="M115.778 92.4444C117.157 92.4444 118.495 92.6067 119.833 92.8094V73.2617L89.4167 60L59 73.2617V93.1744C59 111.587 71.9778 128.823 89.4167 133C91.6472 132.473 93.7967 131.702 95.9056 130.769C93.1072 126.795 91.4444 121.969 91.4444 116.778C91.4444 103.354 102.354 92.4444 115.778 92.4444Z" fill="#00339E"/>
<path id="Vector_2" d="M115.778 100.556C106.815 100.556 99.5557 107.815 99.5557 116.778C99.5557 125.741 106.815 133 115.778 133C124.741 133 132 125.741 132 116.778C132 107.815 124.741 100.556 115.778 100.556ZM115.778 106.152C118.292 106.152 120.32 108.221 120.32 110.694C120.32 113.168 118.252 115.237 115.778 115.237C113.304 115.237 111.236 113.168 111.236 110.694C111.236 108.221 113.263 106.152 115.778 106.152ZM115.778 127.931C112.006 127.931 108.721 126.065 106.693 123.186C106.896 120.266 112.817 118.806 115.778 118.806C118.738 118.806 124.66 120.266 124.862 123.186C122.835 126.065 119.55 127.931 115.778 127.931Z" fill="#00339E"/>
</g>
</g>
</g>
<defs>
<clipPath id="clip0_102_912">
<rect width="192" height="192" fill="white"/>
</clipPath>
</defs>
</svg>
