<svg width="29" height="28" viewBox="0 0 29 28" fill="none" xmlns="http://www.w3.org/2000/svg">
<path fill-rule="evenodd" clip-rule="evenodd" d="M14.625 3.49996C8.82597 3.49996 4.12496 8.20097 4.12496 14C4.12496 19.799 8.82597 24.5 14.625 24.5C20.424 24.5 25.125 19.799 25.125 14C25.125 8.20097 20.424 3.49996 14.625 3.49996ZM1.79163 14C1.79163 6.91231 7.53731 1.16663 14.625 1.16663C21.7126 1.16663 27.4583 6.91231 27.4583 14C27.4583 21.0876 21.7126 26.8333 14.625 26.8333C7.53731 26.8333 1.79163 21.0876 1.79163 14Z" fill="#181A1F"/>
<path fill-rule="evenodd" clip-rule="evenodd" d="M14.625 5.83337C15.2694 5.83337 15.7917 6.35571 15.7917 7.00004V13.279L19.8135 15.2899C20.3898 15.578 20.6234 16.2788 20.3352 16.8551C20.0471 17.4314 19.3463 17.665 18.77 17.3769L14.1033 15.0435C13.708 14.8459 13.4584 14.4419 13.4584 14V7.00004C13.4584 6.35571 13.9807 5.83337 14.625 5.83337Z" fill="#181A1F"/>
</svg>
