<svg width="49" height="49" viewBox="0 0 49 49" fill="none" xmlns="http://www.w3.org/2000/svg">
<path fill-rule="evenodd" clip-rule="evenodd" d="M24.4999 10.0348C26.7253 7.42145 30.1349 5.7677 33.6874 5.7677C39.9758 5.7677 44.9166 10.7085 44.9166 16.9969C44.9166 24.708 37.9863 30.9924 27.4862 40.5138L27.4603 40.5373L24.4999 43.2323L21.5395 40.5577L21.4589 40.4845C10.9895 30.9705 4.08325 24.6946 4.08325 16.9969C4.08325 10.7085 9.02409 5.7677 15.3124 5.7677C18.8649 5.7677 22.2745 7.42145 24.4999 10.0348ZM24.4999 37.7198L24.7041 37.5156C34.4224 28.716 40.8332 22.8973 40.8332 16.9969C40.8332 12.9135 37.7707 9.85103 33.6874 9.85103C30.5433 9.85103 27.4807 11.8723 26.4191 14.6694H22.6012C21.5191 11.8723 18.4566 9.85103 15.3124 9.85103C11.2291 9.85103 8.16659 12.9135 8.16659 16.9969C8.16659 22.8973 14.5774 28.716 24.2958 37.5156L24.4999 37.7198Z" fill="white"/>
</svg>
