<svg width="29" height="28" viewBox="0 0 29 28" fill="none" xmlns="http://www.w3.org/2000/svg">
<path fill-rule="evenodd" clip-rule="evenodd" d="M5.33354 18.0419C6.42751 16.948 7.91124 16.3334 9.45833 16.3334H18.7917C20.3388 16.3334 21.8225 16.948 22.9165 18.0419C24.0104 19.1359 24.625 20.6196 24.625 22.1667V24.5C24.625 25.1444 24.1027 25.6667 23.4583 25.6667C22.814 25.6667 22.2917 25.1444 22.2917 24.5V22.1667C22.2917 21.2384 21.9229 20.3482 21.2665 19.6918C20.6102 19.0355 19.7199 18.6667 18.7917 18.6667H9.45833C8.53008 18.6667 7.63984 19.0355 6.98346 19.6918C6.32708 20.3482 5.95833 21.2384 5.95833 22.1667V24.5C5.95833 25.1444 5.436 25.6667 4.79167 25.6667C4.14733 25.6667 3.625 25.1444 3.625 24.5V22.1667C3.625 20.6196 4.23958 19.1359 5.33354 18.0419Z" fill="#181A1F"/>
<path fill-rule="evenodd" clip-rule="evenodd" d="M14.125 4.66671C12.192 4.66671 10.625 6.23371 10.625 8.16671C10.625 10.0997 12.192 11.6667 14.125 11.6667C16.058 11.6667 17.625 10.0997 17.625 8.16671C17.625 6.23371 16.058 4.66671 14.125 4.66671ZM8.29163 8.16671C8.29163 4.94505 10.9033 2.33337 14.125 2.33337C17.3466 2.33337 19.9583 4.94505 19.9583 8.16671C19.9583 11.3884 17.3466 14 14.125 14C10.9033 14 8.29163 11.3884 8.29163 8.16671Z" fill="#181A1F"/>
</svg>
