<svg width="52" height="52" viewBox="0 0 52 52" fill="none" xmlns="http://www.w3.org/2000/svg">
<g id="Alarm" clip-path="url(#clip0_113_433)">
<path id="Vector" d="M47.6666 12.3934L37.6999 4.03003L34.9049 7.34503L44.8716 15.7084L47.6666 12.3934ZM17.0733 7.34503L14.2999 4.03003L4.33325 12.3717L7.12825 15.6867L17.0733 7.34503ZM27.0833 17.3334H23.8333V30.3334L34.1249 36.5084L35.7499 33.8434L27.0833 28.7084V17.3334ZM25.9999 8.6667C15.2316 8.6667 6.49992 17.3984 6.49992 28.1667C6.49992 38.935 15.2099 47.6667 25.9999 47.6667C36.7682 47.6667 45.4999 38.935 45.4999 28.1667C45.4999 17.3984 36.7682 8.6667 25.9999 8.6667ZM25.9999 43.3334C17.6149 43.3334 10.8333 36.5517 10.8333 28.1667C10.8333 19.7817 17.6149 13 25.9999 13C34.3849 13 41.1666 19.7817 41.1666 28.1667C41.1666 36.5517 34.3849 43.3334 25.9999 43.3334Z" fill="white"/>
</g>
<defs>
<clipPath id="clip0_113_433">
<rect width="52" height="52" fill="white"/>
</clipPath>
</defs>
</svg>
